# xmcd
#
# Track frame offsets:
#	150
#	16885
#	37105
#	52882
#	58240
#	82332
#	102210
#	132065
#	146095
#
# Disc length: 2103 seconds
#
# Revision: 4
# Processed by: cddbd v1.5.2PL0 Copyright (c) Steve Scherf et al.
# Submitted via: dBpowerAMP V4.0
#
DISCID=7c083509
DTITLE=Various Artist - Seventh Star
DYEAR=1986
DGENRE=Rock
TTITLE0=In For The Kill - Black Sabbath
TTITLE1=No Stranger To Love - Black Sabbath
TTITLE2=Turn To Stone - Black Sabbath feat Tonny Iommi
TTITLE3=Sphinx (The Guardian) - Black Sabbath feat Tonny Iommi
TTITLE4=Seventh Star - Black Sabbath feat Tonny Iommi
TTITLE5=Danger Zone - Black Sabbath feat Tonny Iommi
TTITLE6=Heart Like A Wheel - Black Sabbath feat Tonny Iommi
TTITLE7=Angry Heart - Black Sabbath feat Tonny Iommi
TTITLE8=In Memory - Black Sabbath feat Tonny Iommi
EXTD=
EXTT0=
EXTT1=
EXTT2=
EXTT3=
EXTT4=
EXTT5=
EXTT6=
EXTT7=
EXTT8=
PLAYORDER=
